<mxfile host="app.diagrams.net" modified="2020-12-17T06:16:17.185Z" agent="5.0 (Windows NT 10.0; Win64; x64) AppleWebKit/537.36 (KHTML, like Gecko) Chrome/87.0.4280.101 Safari/537.36" etag="kInp4MD-f6UFKMBoy0tx" version="13.8.6" type="github">
  <diagram id="R2lEEEUBdFMjLlhIrx00" name="Page-1">
    <mxGraphModel dx="1673" dy="2113" grid="0" gridSize="10" guides="1" tooltips="1" connect="1" arrows="1" fold="1" page="0" pageScale="1" pageWidth="850" pageHeight="1100" background="#333333" math="0" shadow="0" extFonts="Permanent Marker^https://fonts.googleapis.com/css?family=Permanent+Marker">
      <root>
        <mxCell id="0" />
        <mxCell id="1" parent="0" />
        <mxCell id="RPHHAUqXZ-JlrHhD7i_y-42" value="(G) =&amp;gt; has public getter method&lt;br&gt;(#G) =&amp;gt; has private getter method&lt;br&gt;(S) =&amp;gt; has public setter method&lt;br&gt;(#S) =&amp;gt; has private setter method&lt;br&gt;(C) =&amp;gt; has public clear method&lt;br&gt;(#C) =&amp;gt; has private clear method" style="shape=note;whiteSpace=wrap;html=1;size=14;verticalAlign=middle;align=center;spacingTop=-6;strokeColor=#6c8ebf;fillColor=#dae8fc;fontSize=14;fontStyle=1;fontColor=#000000;" parent="1" vertex="1">
          <mxGeometry x="40" y="-1050" width="250" height="120" as="geometry" />
        </mxCell>
        <mxCell id="C-vyLk0tnHw3VtMMgP7b-23" value="Server.js" style="shape=table;startSize=30;container=1;collapsible=1;childLayout=tableLayout;fixedRows=1;rowLines=0;fontStyle=1;align=center;resizeLast=1;fillColor=#ffe6cc;fontSize=14;fontColor=#000000;strokeColor=#000000;" parent="1" vertex="1">
          <mxGeometry x="80" y="-890" width="290" height="340" as="geometry">
            <mxRectangle x="40" y="80" width="80" height="30" as="alternateBounds" />
          </mxGeometry>
        </mxCell>
        <mxCell id="C-vyLk0tnHw3VtMMgP7b-24" value="" style="shape=partialRectangle;collapsible=0;dropTarget=0;pointerEvents=0;fillColor=none;points=[[0,0.5],[1,0.5]];portConstraint=eastwest;top=0;left=0;right=0;bottom=1;" parent="C-vyLk0tnHw3VtMMgP7b-23" vertex="1">
          <mxGeometry y="30" width="290" height="70" as="geometry" />
        </mxCell>
        <mxCell id="C-vyLk0tnHw3VtMMgP7b-25" value="" style="shape=partialRectangle;overflow=hidden;connectable=0;fillColor=#fff2cc;top=1;left=0;bottom=0;right=0;fontStyle=1;strokeColor=#000000;" parent="C-vyLk0tnHw3VtMMgP7b-24" vertex="1">
          <mxGeometry width="20" height="70" as="geometry" />
        </mxCell>
        <mxCell id="C-vyLk0tnHw3VtMMgP7b-26" value="#netServer &lt;net&gt; (#G/#S)&#xa;&#xa;#clients [Client.js] (#G/#S)" style="shape=partialRectangle;overflow=hidden;connectable=0;fillColor=#fff2cc;top=1;left=1;bottom=1;right=1;align=left;spacingLeft=6;fontStyle=1;fontColor=#000000;strokeColor=#000000;" parent="C-vyLk0tnHw3VtMMgP7b-24" vertex="1">
          <mxGeometry x="20" width="270" height="70" as="geometry" />
        </mxCell>
        <mxCell id="C-vyLk0tnHw3VtMMgP7b-27" value="" style="shape=partialRectangle;collapsible=0;dropTarget=0;pointerEvents=0;fillColor=none;points=[[0,0.5],[1,0.5]];portConstraint=eastwest;top=0;left=0;right=0;bottom=0;" parent="C-vyLk0tnHw3VtMMgP7b-23" vertex="1">
          <mxGeometry y="100" width="290" height="240" as="geometry" />
        </mxCell>
        <mxCell id="C-vyLk0tnHw3VtMMgP7b-28" value="" style="shape=partialRectangle;overflow=hidden;connectable=0;fillColor=#fff2cc;top=0;left=0;bottom=0;right=0;" parent="C-vyLk0tnHw3VtMMgP7b-27" vertex="1">
          <mxGeometry width="20" height="240" as="geometry" />
        </mxCell>
        <mxCell id="C-vyLk0tnHw3VtMMgP7b-29" value="#loadInitializers()&#xa;&#xa;#loadModels()&#xa;&#xa;#loadFromFiles( path&lt;string&gt;, name&lt;string&gt;)&#xa;&#xa;#createNetServer()&#xa;&#xa;#attachEventsToNetServer()&#xa;&#xa;#handleServerConnection( socket&lt;Socket&gt; )&#xa;&#xa;#handleServerListening()&#xa;&#xa;#handleServerClose()" style="shape=partialRectangle;overflow=hidden;connectable=0;fillColor=#fff2cc;top=1;left=1;bottom=1;right=1;align=left;spacingLeft=6;fontColor=#000000;strokeColor=#000000;" parent="C-vyLk0tnHw3VtMMgP7b-27" vertex="1">
          <mxGeometry x="20" width="270" height="240" as="geometry" />
        </mxCell>
        <mxCell id="LLNnqfVXVq463Mdv8l-Q-11" value="" style="endArrow=none;html=1;edgeStyle=orthogonalEdgeStyle;entryX=0.5;entryY=0;entryDx=0;entryDy=0;exitX=1;exitY=0.5;exitDx=0;exitDy=0;fontStyle=1;fontSize=13;fillColor=#d5e8d4;strokeColor=#82b366;" parent="1" source="LLNnqfVXVq463Mdv8l-Q-15" target="LLNnqfVXVq463Mdv8l-Q-1" edge="1">
          <mxGeometry relative="1" as="geometry">
            <mxPoint x="185" y="330" as="sourcePoint" />
            <mxPoint x="705" y="590" as="targetPoint" />
            <Array as="points" />
          </mxGeometry>
        </mxCell>
        <mxCell id="LLNnqfVXVq463Mdv8l-Q-12" value="parent" style="edgeLabel;resizable=0;html=1;align=left;verticalAlign=bottom;fontStyle=1;fontSize=13;" parent="LLNnqfVXVq463Mdv8l-Q-11" connectable="0" vertex="1">
          <mxGeometry x="-1" relative="1" as="geometry">
            <mxPoint x="10" as="offset" />
          </mxGeometry>
        </mxCell>
        <mxCell id="LLNnqfVXVq463Mdv8l-Q-13" value="child" style="edgeLabel;resizable=0;html=1;align=right;verticalAlign=bottom;fontStyle=1;fontSize=13;" parent="LLNnqfVXVq463Mdv8l-Q-11" connectable="0" vertex="1">
          <mxGeometry x="1" relative="1" as="geometry">
            <mxPoint x="-5" y="-10" as="offset" />
          </mxGeometry>
        </mxCell>
        <mxCell id="z2Sqn7znSfn0VmSnWaxQ-1" value="Can have *" style="endArrow=open;endSize=12;dashed=1;html=1;exitX=1;exitY=0.5;exitDx=0;exitDy=0;entryX=0;entryY=0.5;entryDx=0;entryDy=0;fontSize=13;fontStyle=1;fillColor=#d5e8d4;strokeColor=#FF3399;" parent="1" edge="1">
          <mxGeometry width="160" relative="1" as="geometry">
            <mxPoint x="370" y="-825" as="sourcePoint" />
            <mxPoint x="480" y="-824" as="targetPoint" />
          </mxGeometry>
        </mxCell>
        <mxCell id="z2Sqn7znSfn0VmSnWaxQ-2" value="Can have 1" style="endArrow=open;endSize=12;dashed=1;html=1;exitX=1;exitY=0.5;exitDx=0;exitDy=0;entryX=-0.003;entryY=0.352;entryDx=0;entryDy=0;entryPerimeter=0;fontSize=13;fontStyle=1;fillColor=#d5e8d4;strokeColor=#FF3399;" parent="1" source="WISyl8SChnoXYUJT97gY-2" target="RPHHAUqXZ-JlrHhD7i_y-14" edge="1">
          <mxGeometry width="160" relative="1" as="geometry">
            <mxPoint x="800" y="-840" as="sourcePoint" />
            <mxPoint x="959.1300000000001" y="-840.06" as="targetPoint" />
          </mxGeometry>
        </mxCell>
        <mxCell id="z2Sqn7znSfn0VmSnWaxQ-34" value="Can have [0-5]" style="endArrow=open;endSize=12;dashed=1;html=1;exitX=1;exitY=0.5;exitDx=0;exitDy=0;fontSize=13;fontStyle=1;fillColor=#d5e8d4;strokeColor=#FF3399;" parent="1" source="RPHHAUqXZ-JlrHhD7i_y-14" edge="1">
          <mxGeometry width="160" relative="1" as="geometry">
            <mxPoint x="1250" y="-839.94" as="sourcePoint" />
            <mxPoint x="1369" y="-745" as="targetPoint" />
          </mxGeometry>
        </mxCell>
        <mxCell id="uYPpwJd9M9AzhUMTKTET-1" value="Has 1" style="endArrow=open;endSize=12;dashed=1;html=1;fontSize=13;fontStyle=1;fillColor=#d5e8d4;strokeColor=#FF3399;" parent="1" source="C-vyLk0tnHw3VtMMgP7b-27" edge="1">
          <mxGeometry x="0.6119" width="160" relative="1" as="geometry">
            <mxPoint x="380" y="-815" as="sourcePoint" />
            <mxPoint x="479" y="-119" as="targetPoint" />
            <Array as="points">
              <mxPoint x="225" y="-120" />
            </Array>
            <mxPoint as="offset" />
          </mxGeometry>
        </mxCell>
        <mxCell id="WISyl8SChnoXYUJT97gY-1" value="Client.js" style="shape=table;startSize=30;container=1;collapsible=1;childLayout=tableLayout;fixedRows=1;rowLines=0;fontStyle=1;align=center;resizeLast=1;fillColor=#ffe6cc;fontSize=14;fontColor=#000000;strokeColor=#000000;" parent="1" vertex="1">
          <mxGeometry x="480" y="-890" width="320" height="610" as="geometry">
            <mxRectangle x="40" y="80" width="80" height="30" as="alternateBounds" />
          </mxGeometry>
        </mxCell>
        <mxCell id="WISyl8SChnoXYUJT97gY-2" value="" style="shape=partialRectangle;collapsible=0;dropTarget=0;pointerEvents=0;fillColor=none;points=[[0,0.5],[1,0.5]];portConstraint=eastwest;top=0;left=0;right=0;bottom=1;" parent="WISyl8SChnoXYUJT97gY-1" vertex="1">
          <mxGeometry y="30" width="320" height="160" as="geometry" />
        </mxCell>
        <mxCell id="WISyl8SChnoXYUJT97gY-3" value="" style="shape=partialRectangle;overflow=hidden;connectable=0;fillColor=#fff2cc;top=1;left=0;bottom=0;right=0;fontStyle=1;strokeColor=#000000;" parent="WISyl8SChnoXYUJT97gY-2" vertex="1">
          <mxGeometry width="20" height="160" as="geometry" />
        </mxCell>
        <mxCell id="WISyl8SChnoXYUJT97gY-4" value="#remoteIpAddres &lt;string&gt; (G/#S)&#xa;&#xa;#remotePort &lt;string&gt; (G/#S)&#xa;&#xa;#remoteProtocol (G/#S)&#xa;&#xa;#socket &lt;Socket&gt; (G/#S/C)&#xa;&#xa;#account &lt;Account.js&gt; (G/#S/C)" style="shape=partialRectangle;overflow=hidden;connectable=0;fillColor=#fff2cc;top=1;left=1;bottom=1;right=1;align=left;spacingLeft=6;fontStyle=1;fontColor=#000000;strokeColor=#000000;" parent="WISyl8SChnoXYUJT97gY-2" vertex="1">
          <mxGeometry x="20" width="300" height="160" as="geometry" />
        </mxCell>
        <mxCell id="WISyl8SChnoXYUJT97gY-5" value="" style="shape=partialRectangle;collapsible=0;dropTarget=0;pointerEvents=0;fillColor=none;points=[[0,0.5],[1,0.5]];portConstraint=eastwest;top=0;left=0;right=0;bottom=0;" parent="WISyl8SChnoXYUJT97gY-1" vertex="1">
          <mxGeometry y="190" width="320" height="420" as="geometry" />
        </mxCell>
        <mxCell id="WISyl8SChnoXYUJT97gY-6" value="" style="shape=partialRectangle;overflow=hidden;connectable=0;fillColor=#fff2cc;top=0;left=0;bottom=0;right=0;" parent="WISyl8SChnoXYUJT97gY-5" vertex="1">
          <mxGeometry width="20" height="420" as="geometry" />
        </mxCell>
        <mxCell id="WISyl8SChnoXYUJT97gY-7" value="isLoggedIn()&#xa;&#xa;loginAccount( accountData&lt;object&gt;)&#xa;&#xa;loginFail( error&lt;Error&gt; )&#xa;&#xa;#handshakeServer()&#xa;&#xa;broadcastSelf( data[&lt;string,number,bool&gt;])&#xa;&#xa;data( data&lt;Packet&gt; )&#xa;&#xa;end()&#xa;&#xa;close( data&lt;object&gt; )&#xa;&#xa;error( error&lt;Error&gt; )&#xa;&#xa;timeout()&#xa;&#xa;drain()&#xa;&#xa;#closeConnection()&#xa;&#xa;#closeCharacterOnlineConnection()&#xa;&#xa;#closeGame( message&lt;string&gt; )" style="shape=partialRectangle;overflow=hidden;connectable=0;fillColor=#fff2cc;top=1;left=1;bottom=1;right=1;align=left;spacingLeft=6;fontColor=#000000;strokeColor=#000000;" parent="WISyl8SChnoXYUJT97gY-5" vertex="1">
          <mxGeometry x="20" width="300" height="420" as="geometry" />
        </mxCell>
        <mxCell id="RPHHAUqXZ-JlrHhD7i_y-13" value="Account.js" style="shape=table;startSize=30;container=1;collapsible=1;childLayout=tableLayout;fixedRows=1;rowLines=0;fontStyle=1;align=center;resizeLast=1;fillColor=#ffe6cc;fontSize=14;fontColor=#000000;strokeColor=#000000;" parent="1" vertex="1">
          <mxGeometry x="930" y="-890" width="290" height="420" as="geometry">
            <mxRectangle x="40" y="80" width="80" height="30" as="alternateBounds" />
          </mxGeometry>
        </mxCell>
        <mxCell id="RPHHAUqXZ-JlrHhD7i_y-14" value="" style="shape=partialRectangle;collapsible=0;dropTarget=0;pointerEvents=0;fillColor=none;points=[[0,0.5],[1,0.5]];portConstraint=eastwest;top=0;left=0;right=0;bottom=1;" parent="RPHHAUqXZ-JlrHhD7i_y-13" vertex="1">
          <mxGeometry y="30" width="290" height="230" as="geometry" />
        </mxCell>
        <mxCell id="RPHHAUqXZ-JlrHhD7i_y-15" value="" style="shape=partialRectangle;overflow=hidden;connectable=0;fillColor=#fff2cc;top=1;left=0;bottom=0;right=0;fontStyle=1;strokeColor=#000000;" parent="RPHHAUqXZ-JlrHhD7i_y-14" vertex="1">
          <mxGeometry width="20" height="230" as="geometry" />
        </mxCell>
        <mxCell id="RPHHAUqXZ-JlrHhD7i_y-16" value="id &lt;string&gt;&#xa;&#xa;email &lt;string&gt;&#xa;&#xa;nickname &lt;string&gt;&#xa;&#xa;creationDate &lt;date string&gt;&#xa;&#xa;lastLoginDate &lt;date string&gt;&#xa;&#xa;characters [&lt;Character.js&gt;]&#xa;&#xa;characterOnline &lt;Character.js&gt;&#xa;&#xa;socket &lt;Socket&gt;" style="shape=partialRectangle;overflow=hidden;connectable=0;fillColor=#fff2cc;top=1;left=1;bottom=1;right=1;align=left;spacingLeft=6;fontStyle=1;fontColor=#000000;strokeColor=#000000;" parent="RPHHAUqXZ-JlrHhD7i_y-14" vertex="1">
          <mxGeometry x="20" width="270" height="230" as="geometry" />
        </mxCell>
        <mxCell id="RPHHAUqXZ-JlrHhD7i_y-17" value="" style="shape=partialRectangle;collapsible=0;dropTarget=0;pointerEvents=0;fillColor=none;points=[[0,0.5],[1,0.5]];portConstraint=eastwest;top=0;left=0;right=0;bottom=0;" parent="RPHHAUqXZ-JlrHhD7i_y-13" vertex="1">
          <mxGeometry y="260" width="290" height="160" as="geometry" />
        </mxCell>
        <mxCell id="RPHHAUqXZ-JlrHhD7i_y-18" value="" style="shape=partialRectangle;overflow=hidden;connectable=0;fillColor=#fff2cc;top=0;left=0;bottom=0;right=0;" parent="RPHHAUqXZ-JlrHhD7i_y-17" vertex="1">
          <mxGeometry width="20" height="160" as="geometry" />
        </mxCell>
        <mxCell id="RPHHAUqXZ-JlrHhD7i_y-19" value="#updateLastLoginDate()&#xa;&#xa;#broadcastSelf( data[&lt;string/number&gt;] )&#xa;&#xa;#sendLoginData()&#xa;&#xa;isOnline()&#xa;&#xa;enterGame( characterName&lt;string&gt; )" style="shape=partialRectangle;overflow=hidden;connectable=0;fillColor=#fff2cc;top=1;left=1;bottom=1;right=1;align=left;spacingLeft=6;fontColor=#000000;strokeColor=#000000;" parent="RPHHAUqXZ-JlrHhD7i_y-17" vertex="1">
          <mxGeometry x="20" width="270" height="160" as="geometry" />
        </mxCell>
        <mxCell id="z2Sqn7znSfn0VmSnWaxQ-27" value="Character.js" style="shape=table;startSize=30;container=1;collapsible=1;childLayout=tableLayout;fixedRows=1;rowLines=0;fontStyle=1;align=center;resizeLast=1;fillColor=#ffe6cc;fontSize=14;strokeColor=#000000;fontColor=#000000;verticalAlign=middle;" parent="1" vertex="1">
          <mxGeometry x="1370" y="-890" width="370" height="637.4705882352944" as="geometry">
            <mxRectangle x="40" y="80" width="80" height="30" as="alternateBounds" />
          </mxGeometry>
        </mxCell>
        <mxCell id="z2Sqn7znSfn0VmSnWaxQ-28" value="" style="shape=partialRectangle;collapsible=0;dropTarget=0;pointerEvents=0;fillColor=none;points=[[0,0.5],[1,0.5]];portConstraint=eastwest;top=0;left=0;right=0;bottom=1;" parent="z2Sqn7znSfn0VmSnWaxQ-27" vertex="1">
          <mxGeometry y="30" width="370" height="297" as="geometry" />
        </mxCell>
        <mxCell id="z2Sqn7znSfn0VmSnWaxQ-29" value="" style="shape=partialRectangle;overflow=hidden;connectable=0;fillColor=#fff2cc;top=1;left=0;bottom=0;right=0;fontStyle=1;strokeColor=#000000;" parent="z2Sqn7znSfn0VmSnWaxQ-28" vertex="1">
          <mxGeometry width="20" height="297" as="geometry" />
        </mxCell>
        <mxCell id="z2Sqn7znSfn0VmSnWaxQ-30" value="#position &lt;Position.js&gt; (G/#S)&#xa;&#xa;#state &lt;string&gt; (G/#S)&#xa;&#xa;#HP &lt;HPFunctionality.js&gt; (G/#S)&#xa;&#xa;#mana PENDING...&#xa;&#xa;#race PENDING...&#xa;&#xa;#level PENDING...&#xa;&#xa;#experience PENDING...&#xa;&#xa;#socket &lt;Socket&gt; (G/#S/C)&#xa;&#xa;#model &lt;CharacterModel.js&gt; (G/#S)&#xa;&#xa;#updateDaemon &lt;setInterval&gt; (#G/#S)" style="shape=partialRectangle;overflow=hidden;connectable=0;fillColor=#fff2cc;top=1;left=1;bottom=1;right=1;align=left;spacingLeft=6;fontStyle=1;strokeColor=#000000;fontColor=#000000;" parent="z2Sqn7znSfn0VmSnWaxQ-28" vertex="1">
          <mxGeometry x="20" width="350" height="297" as="geometry" />
        </mxCell>
        <mxCell id="z2Sqn7znSfn0VmSnWaxQ-31" value="" style="shape=partialRectangle;collapsible=0;dropTarget=0;pointerEvents=0;fillColor=none;points=[[0,0.5],[1,0.5]];portConstraint=eastwest;top=0;left=0;right=0;bottom=0;" parent="z2Sqn7znSfn0VmSnWaxQ-27" vertex="1">
          <mxGeometry y="327" width="370" height="310" as="geometry" />
        </mxCell>
        <mxCell id="z2Sqn7znSfn0VmSnWaxQ-32" value="" style="shape=partialRectangle;overflow=hidden;connectable=0;fillColor=#fff2cc;top=0;left=0;bottom=0;right=0;" parent="z2Sqn7znSfn0VmSnWaxQ-31" vertex="1">
          <mxGeometry width="20" height="310" as="geometry" />
        </mxCell>
        <mxCell id="z2Sqn7znSfn0VmSnWaxQ-33" value="async #getCharacterModel()&#xa;&#xa;save()&#xa;&#xa;#enterInRoom()&#xa;&#xa;exitRoom()&#xa;&#xa;broadcastRoom( data[&lt;native&gt;], sendToSelf&lt;boolean&gt; )&#xa;&#xa;broadcastNearby( data[&lt;native&gt;], sendToSelf&lt;boolean&gt; )&#xa;&#xa;#sendCharacterConnectData()&#xa;&#xa;#sendUpdateRequest()&#xa;&#xa;#initUpdateDaemon()&#xa;&#xa;clearUpdateDaemon()" style="shape=partialRectangle;overflow=hidden;connectable=0;fillColor=#fff2cc;top=1;left=1;bottom=1;right=1;align=left;spacingLeft=6;fontColor=#000000;strokeColor=#000000;" parent="z2Sqn7znSfn0VmSnWaxQ-31" vertex="1">
          <mxGeometry x="20" width="350" height="310" as="geometry" />
        </mxCell>
        <mxCell id="LLNnqfVXVq463Mdv8l-Q-14" value="Entity.js" style="shape=table;startSize=30;container=1;collapsible=1;childLayout=tableLayout;fixedRows=1;rowLines=0;fontStyle=1;align=center;resizeLast=1;fillColor=#ffe6cc;fontSize=14;strokeColor=#000000;fontColor=#000000;verticalAlign=middle;" parent="1" vertex="1">
          <mxGeometry x="1930" y="-1040" width="290" height="240" as="geometry">
            <mxRectangle x="40" y="80" width="80" height="30" as="alternateBounds" />
          </mxGeometry>
        </mxCell>
        <mxCell id="LLNnqfVXVq463Mdv8l-Q-15" value="" style="shape=partialRectangle;collapsible=0;dropTarget=0;pointerEvents=0;fillColor=none;points=[[0,0.5],[1,0.5]];portConstraint=eastwest;top=0;left=0;right=0;bottom=1;" parent="LLNnqfVXVq463Mdv8l-Q-14" vertex="1">
          <mxGeometry y="30" width="290" height="110" as="geometry" />
        </mxCell>
        <mxCell id="LLNnqfVXVq463Mdv8l-Q-16" value="" style="shape=partialRectangle;overflow=hidden;connectable=0;fillColor=#fff2cc;top=1;left=0;bottom=0;right=0;fontStyle=1;strokeColor=#000000;" parent="LLNnqfVXVq463Mdv8l-Q-15" vertex="1">
          <mxGeometry width="20" height="110" as="geometry" />
        </mxCell>
        <mxCell id="LLNnqfVXVq463Mdv8l-Q-17" value="#id &lt;string&gt; (G/#S)&#xa;&#xa;#name &lt;string&gt; (G/#S)&#xa;&#xa;#typeId &lt;string&gt; (G/#S)&#xa;&#xa;#typeName &lt;string&gt; (G/#S)" style="shape=partialRectangle;overflow=hidden;connectable=0;fillColor=#fff2cc;top=1;left=1;bottom=1;right=1;align=left;spacingLeft=6;fontStyle=1;fontColor=#000000;strokeColor=#000000;" parent="LLNnqfVXVq463Mdv8l-Q-15" vertex="1">
          <mxGeometry x="20" width="270" height="110" as="geometry" />
        </mxCell>
        <mxCell id="LLNnqfVXVq463Mdv8l-Q-18" value="" style="shape=partialRectangle;collapsible=0;dropTarget=0;pointerEvents=0;fillColor=none;points=[[0,0.5],[1,0.5]];portConstraint=eastwest;top=0;left=0;right=0;bottom=0;" parent="LLNnqfVXVq463Mdv8l-Q-14" vertex="1">
          <mxGeometry y="140" width="290" height="100" as="geometry" />
        </mxCell>
        <mxCell id="LLNnqfVXVq463Mdv8l-Q-19" value="" style="shape=partialRectangle;overflow=hidden;connectable=0;fillColor=#fff2cc;top=0;left=0;bottom=0;right=0;" parent="LLNnqfVXVq463Mdv8l-Q-18" vertex="1">
          <mxGeometry width="20" height="100" as="geometry" />
        </mxCell>
        <mxCell id="LLNnqfVXVq463Mdv8l-Q-20" value="#init()&#xa;&#xa;#loadEntityDataFromConfigJson()&#xa;&#xa;#loadEntityTypeDataFromConfigJson()" style="shape=partialRectangle;overflow=hidden;connectable=0;fillColor=#fff2cc;top=1;left=1;bottom=1;right=1;align=left;spacingLeft=6;fontColor=#000000;strokeColor=#000000;" parent="LLNnqfVXVq463Mdv8l-Q-18" vertex="1">
          <mxGeometry x="20" width="270" height="100" as="geometry" />
        </mxCell>
        <mxCell id="uYPpwJd9M9AzhUMTKTET-6" value="" style="endArrow=none;html=1;edgeStyle=orthogonalEdgeStyle;exitX=0;exitY=0.5;exitDx=0;exitDy=0;fontStyle=1;fontSize=13;fillColor=#d5e8d4;strokeColor=#82b366;" parent="1" source="LLNnqfVXVq463Mdv8l-Q-15" target="z2Sqn7znSfn0VmSnWaxQ-28" edge="1">
          <mxGeometry relative="1" as="geometry">
            <mxPoint x="2230" y="-945" as="sourcePoint" />
            <mxPoint x="2380" y="-755" as="targetPoint" />
            <Array as="points" />
          </mxGeometry>
        </mxCell>
        <mxCell id="uYPpwJd9M9AzhUMTKTET-7" value="parent" style="edgeLabel;resizable=0;html=1;align=left;verticalAlign=bottom;fontSize=13;fontStyle=1" parent="uYPpwJd9M9AzhUMTKTET-6" connectable="0" vertex="1">
          <mxGeometry x="-1" relative="1" as="geometry">
            <mxPoint x="-50" as="offset" />
          </mxGeometry>
        </mxCell>
        <mxCell id="uYPpwJd9M9AzhUMTKTET-8" value="child" style="edgeLabel;resizable=0;html=1;align=right;verticalAlign=bottom;fontSize=13;fontStyle=1" parent="uYPpwJd9M9AzhUMTKTET-6" connectable="0" vertex="1">
          <mxGeometry x="1" relative="1" as="geometry">
            <mxPoint x="40.11" as="offset" />
          </mxGeometry>
        </mxCell>
        <mxCell id="u5gvoZnwLGpW4CmPaw9T-7" value="Position.js" style="shape=table;startSize=30;container=1;collapsible=1;childLayout=tableLayout;fixedRows=1;rowLines=0;fontStyle=1;align=center;resizeLast=1;fillColor=#ffe6cc;fontSize=14;strokeColor=#000000;fontColor=#000000;" parent="1" vertex="1">
          <mxGeometry x="1930" y="-685" width="290" height="210" as="geometry">
            <mxRectangle x="770" y="-360" width="80" height="30" as="alternateBounds" />
          </mxGeometry>
        </mxCell>
        <mxCell id="u5gvoZnwLGpW4CmPaw9T-8" value="" style="shape=partialRectangle;collapsible=0;dropTarget=0;pointerEvents=0;fillColor=none;points=[[0,0.5],[1,0.5]];portConstraint=eastwest;top=0;left=0;right=0;bottom=1;" parent="u5gvoZnwLGpW4CmPaw9T-7" vertex="1">
          <mxGeometry y="30" width="290" height="130" as="geometry" />
        </mxCell>
        <mxCell id="u5gvoZnwLGpW4CmPaw9T-9" value="" style="shape=partialRectangle;overflow=hidden;connectable=0;fillColor=#fff2cc;top=1;left=0;bottom=0;right=0;fontStyle=1;strokeColor=#000000;" parent="u5gvoZnwLGpW4CmPaw9T-8" vertex="1">
          <mxGeometry width="20" height="130" as="geometry" />
        </mxCell>
        <mxCell id="u5gvoZnwLGpW4CmPaw9T-10" value="#x &lt;number&gt; (G/#S)&#xa;&#xa;#y &lt;number&gt; (G/#S)&#xa;&#xa;#roomCode &lt;string&gt; (G/#S)&#xa;&#xa;#direction &lt;number&gt; (G/#S)" style="shape=partialRectangle;overflow=hidden;connectable=0;fillColor=#fff2cc;top=1;left=1;bottom=1;right=1;align=left;spacingLeft=6;fontStyle=1;fontColor=#000000;strokeColor=#000000;" parent="u5gvoZnwLGpW4CmPaw9T-8" vertex="1">
          <mxGeometry x="20" width="270" height="130" as="geometry" />
        </mxCell>
        <mxCell id="u5gvoZnwLGpW4CmPaw9T-11" value="" style="shape=partialRectangle;collapsible=0;dropTarget=0;pointerEvents=0;fillColor=none;points=[[0,0.5],[1,0.5]];portConstraint=eastwest;top=0;left=0;right=0;bottom=0;" parent="u5gvoZnwLGpW4CmPaw9T-7" vertex="1">
          <mxGeometry y="160" width="290" height="50" as="geometry" />
        </mxCell>
        <mxCell id="u5gvoZnwLGpW4CmPaw9T-12" value="" style="shape=partialRectangle;overflow=hidden;connectable=0;fillColor=#fff2cc;top=0;left=0;bottom=0;right=0;" parent="u5gvoZnwLGpW4CmPaw9T-11" vertex="1">
          <mxGeometry width="20" height="50" as="geometry" />
        </mxCell>
        <mxCell id="u5gvoZnwLGpW4CmPaw9T-13" value="determineDirection( valueToSet&lt;number&gt; )" style="shape=partialRectangle;overflow=hidden;connectable=0;fillColor=#fff2cc;top=1;left=1;bottom=1;right=1;align=left;spacingLeft=6;fontColor=#000000;strokeColor=#000000;" parent="u5gvoZnwLGpW4CmPaw9T-11" vertex="1">
          <mxGeometry x="20" width="270" height="50" as="geometry" />
        </mxCell>
        <mxCell id="uYPpwJd9M9AzhUMTKTET-9" value="Has 1" style="endArrow=open;endSize=12;dashed=1;html=1;fontStyle=1;fontSize=13;fillColor=#d5e8d4;strokeColor=#FF3399;" parent="1" edge="1">
          <mxGeometry x="0.1579" width="160" relative="1" as="geometry">
            <mxPoint x="1740" y="-591" as="sourcePoint" />
            <mxPoint x="1930" y="-591" as="targetPoint" />
            <mxPoint as="offset" />
          </mxGeometry>
        </mxCell>
        <mxCell id="uYPpwJd9M9AzhUMTKTET-10" value="Has 1" style="endArrow=open;endSize=12;dashed=1;html=1;exitX=0.002;exitY=0.782;exitDx=0;exitDy=0;exitPerimeter=0;fontStyle=1;fontSize=13;fillColor=#d5e8d4;strokeColor=#FF3399;" parent="1" source="LLNnqfVXVq463Mdv8l-Q-2" edge="1">
          <mxGeometry width="160" relative="1" as="geometry">
            <mxPoint x="2260" y="-600" as="sourcePoint" />
            <mxPoint x="2220" y="-599" as="targetPoint" />
            <Array as="points">
              <mxPoint x="2280" y="-782" />
              <mxPoint x="2280" y="-599" />
            </Array>
          </mxGeometry>
        </mxCell>
        <mxCell id="RPHHAUqXZ-JlrHhD7i_y-34" value="HPFunctionality.js" style="shape=table;startSize=30;container=1;collapsible=1;childLayout=tableLayout;fixedRows=1;rowLines=0;fontStyle=1;align=center;resizeLast=1;fillColor=#ffe6cc;fontSize=14;strokeColor=#000000;fontColor=#000000;" parent="1" vertex="1">
          <mxGeometry x="1930" y="-450" width="290" height="350" as="geometry">
            <mxRectangle x="40" y="80" width="80" height="30" as="alternateBounds" />
          </mxGeometry>
        </mxCell>
        <mxCell id="RPHHAUqXZ-JlrHhD7i_y-35" value="" style="shape=partialRectangle;collapsible=0;dropTarget=0;pointerEvents=0;fillColor=none;points=[[0,0.5],[1,0.5]];portConstraint=eastwest;top=0;left=0;right=0;bottom=1;" parent="RPHHAUqXZ-JlrHhD7i_y-34" vertex="1">
          <mxGeometry y="30" width="290" height="160" as="geometry" />
        </mxCell>
        <mxCell id="RPHHAUqXZ-JlrHhD7i_y-36" value="" style="shape=partialRectangle;overflow=hidden;connectable=0;fillColor=#fff2cc;top=1;left=0;bottom=0;right=0;fontStyle=1;strokeColor=#000000;" parent="RPHHAUqXZ-JlrHhD7i_y-35" vertex="1">
          <mxGeometry width="20" height="160" as="geometry" />
        </mxCell>
        <mxCell id="RPHHAUqXZ-JlrHhD7i_y-37" value="currentHP &lt;number&gt; (G/#S)&#xa;&#xa;maxHP &lt;number&gt; (G/#S)&#xa;&#xa;rangeMinHP &lt;number&gt; (G/#S)&#xa;&#xa;rangeMaxHP &lt;number&gt; (G/#S)&#xa;&#xa;onDeadEvent &lt;function&gt; (#G/#S)" style="shape=partialRectangle;overflow=hidden;connectable=0;fillColor=#fff2cc;top=1;left=1;bottom=1;right=1;align=left;spacingLeft=6;fontStyle=1;fontColor=#000000;strokeColor=#000000;" parent="RPHHAUqXZ-JlrHhD7i_y-35" vertex="1">
          <mxGeometry x="20" width="270" height="160" as="geometry" />
        </mxCell>
        <mxCell id="RPHHAUqXZ-JlrHhD7i_y-38" value="" style="shape=partialRectangle;collapsible=0;dropTarget=0;pointerEvents=0;fillColor=none;points=[[0,0.5],[1,0.5]];portConstraint=eastwest;top=0;left=0;right=0;bottom=0;" parent="RPHHAUqXZ-JlrHhD7i_y-34" vertex="1">
          <mxGeometry y="190" width="290" height="160" as="geometry" />
        </mxCell>
        <mxCell id="RPHHAUqXZ-JlrHhD7i_y-39" value="" style="shape=partialRectangle;overflow=hidden;connectable=0;fillColor=#fff2cc;top=0;left=0;bottom=0;right=0;" parent="RPHHAUqXZ-JlrHhD7i_y-38" vertex="1">
          <mxGeometry width="20" height="160" as="geometry" />
        </mxCell>
        <mxCell id="RPHHAUqXZ-JlrHhD7i_y-40" value="#init()&#xa;&#xa;#canRandomizeHP()&#xa;&#xa;#randomizeHP()&#xa;&#xa;isAlive()&#xa;&#xa;receiveDamage( damageToReceive&lt;number&gt; )" style="shape=partialRectangle;overflow=hidden;connectable=0;fillColor=#fff2cc;top=1;left=1;bottom=1;right=1;align=left;spacingLeft=6;fontColor=#000000;strokeColor=#000000;" parent="RPHHAUqXZ-JlrHhD7i_y-38" vertex="1">
          <mxGeometry x="20" width="270" height="160" as="geometry" />
        </mxCell>
        <mxCell id="uYPpwJd9M9AzhUMTKTET-15" value="Has 1" style="endArrow=open;endSize=12;dashed=1;html=1;entryX=1.003;entryY=0.425;entryDx=0;entryDy=0;fontStyle=1;fontSize=13;fillColor=#d5e8d4;strokeColor=#FF3399;entryPerimeter=0;" parent="1" target="RPHHAUqXZ-JlrHhD7i_y-35" edge="1">
          <mxGeometry width="160" relative="1" as="geometry">
            <mxPoint x="2340" y="-780" as="sourcePoint" />
            <mxPoint x="2230" y="-589" as="targetPoint" />
            <Array as="points">
              <mxPoint x="2340" y="-780" />
              <mxPoint x="2340" y="-352" />
            </Array>
          </mxGeometry>
        </mxCell>
        <mxCell id="uYPpwJd9M9AzhUMTKTET-16" value="Has 1" style="endArrow=open;endSize=12;dashed=1;html=1;entryX=0.003;entryY=0.392;entryDx=0;entryDy=0;fontStyle=1;fontSize=13;fillColor=#d5e8d4;strokeColor=#FF3399;entryPerimeter=0;" parent="1" target="RPHHAUqXZ-JlrHhD7i_y-35" edge="1">
          <mxGeometry x="0.6098" width="160" relative="1" as="geometry">
            <mxPoint x="1790" y="-590" as="sourcePoint" />
            <mxPoint x="1940" y="-581" as="targetPoint" />
            <Array as="points">
              <mxPoint x="1790" y="-590" />
              <mxPoint x="1790" y="-357" />
            </Array>
            <mxPoint as="offset" />
          </mxGeometry>
        </mxCell>
        <mxCell id="LLNnqfVXVq463Mdv8l-Q-1" value="Enemy.js" style="shape=table;startSize=30;container=1;collapsible=1;childLayout=tableLayout;fixedRows=1;rowLines=0;fontStyle=1;align=center;resizeLast=1;fillColor=#ffe6cc;fontSize=14;strokeColor=#000000;fontColor=#000000;verticalAlign=middle;" parent="1" vertex="1">
          <mxGeometry x="2390" y="-890" width="370" height="210" as="geometry">
            <mxRectangle x="40" y="80" width="80" height="30" as="alternateBounds" />
          </mxGeometry>
        </mxCell>
        <mxCell id="LLNnqfVXVq463Mdv8l-Q-2" value="" style="shape=partialRectangle;collapsible=0;dropTarget=0;pointerEvents=0;fillColor=none;points=[[0,0.5],[1,0.5]];portConstraint=eastwest;top=0;left=0;right=0;bottom=1;" parent="LLNnqfVXVq463Mdv8l-Q-1" vertex="1">
          <mxGeometry y="30" width="370" height="100" as="geometry" />
        </mxCell>
        <mxCell id="LLNnqfVXVq463Mdv8l-Q-3" value="" style="shape=partialRectangle;overflow=hidden;connectable=0;fillColor=#fff2cc;top=1;left=0;bottom=0;right=0;fontStyle=1;strokeColor=#000000;" parent="LLNnqfVXVq463Mdv8l-Q-2" vertex="1">
          <mxGeometry width="20" height="100" as="geometry" />
        </mxCell>
        <mxCell id="LLNnqfVXVq463Mdv8l-Q-4" value="&#xa;#state &lt;string&gt; (G/#S)&#xa;&#xa;#position &lt;Position.js&gt; (G/#S)&#xa;&#xa;#HP &lt;HPFunctionality.js&gt; (G/#S)&#xa;&#xa;" style="shape=partialRectangle;overflow=hidden;connectable=0;fillColor=#fff2cc;top=1;left=1;bottom=1;right=1;align=left;spacingLeft=6;fontStyle=1;fontColor=#000000;strokeColor=#000000;" parent="LLNnqfVXVq463Mdv8l-Q-2" vertex="1">
          <mxGeometry x="20" width="350" height="100" as="geometry" />
        </mxCell>
        <mxCell id="LLNnqfVXVq463Mdv8l-Q-5" value="" style="shape=partialRectangle;collapsible=0;dropTarget=0;pointerEvents=0;fillColor=none;points=[[0,0.5],[1,0.5]];portConstraint=eastwest;top=0;left=0;right=0;bottom=0;" parent="LLNnqfVXVq463Mdv8l-Q-1" vertex="1">
          <mxGeometry y="130" width="370" height="80" as="geometry" />
        </mxCell>
        <mxCell id="LLNnqfVXVq463Mdv8l-Q-6" value="" style="shape=partialRectangle;overflow=hidden;connectable=0;fillColor=#fff2cc;top=0;left=0;bottom=0;right=0;" parent="LLNnqfVXVq463Mdv8l-Q-5" vertex="1">
          <mxGeometry width="20" height="80" as="geometry" />
        </mxCell>
        <mxCell id="LLNnqfVXVq463Mdv8l-Q-7" value="#init()&#xa;&#xa;loadEnemyDataFromConfigJson( entityObj&lt;object&gt; )" style="shape=partialRectangle;overflow=hidden;connectable=0;fillColor=#fff2cc;top=1;left=1;bottom=1;right=1;align=left;spacingLeft=6;fontColor=#000000;strokeColor=#000000;" parent="LLNnqfVXVq463Mdv8l-Q-5" vertex="1">
          <mxGeometry x="20" width="350" height="80" as="geometry" />
        </mxCell>
        <mxCell id="LLNnqfVXVq463Mdv8l-Q-25" value="SpawnsManager.js" style="shape=table;startSize=30;container=1;collapsible=1;childLayout=tableLayout;fixedRows=1;rowLines=0;fontStyle=1;align=center;resizeLast=1;fillColor=#ffe6cc;fontSize=14;fontColor=#000000;strokeColor=#000000;" parent="1" vertex="1">
          <mxGeometry x="480" y="-200" width="320" height="320" as="geometry">
            <mxRectangle x="40" y="80" width="80" height="30" as="alternateBounds" />
          </mxGeometry>
        </mxCell>
        <mxCell id="LLNnqfVXVq463Mdv8l-Q-26" value="" style="shape=partialRectangle;collapsible=0;dropTarget=0;pointerEvents=0;fillColor=none;points=[[0,0.5],[1,0.5]];portConstraint=eastwest;top=0;left=0;right=0;bottom=1;" parent="LLNnqfVXVq463Mdv8l-Q-25" vertex="1">
          <mxGeometry y="30" width="320" height="70" as="geometry" />
        </mxCell>
        <mxCell id="LLNnqfVXVq463Mdv8l-Q-27" value="" style="shape=partialRectangle;overflow=hidden;connectable=0;fillColor=#fff2cc;top=1;left=0;bottom=0;right=0;fontStyle=1;strokeColor=#000000;" parent="LLNnqfVXVq463Mdv8l-Q-26" vertex="1">
          <mxGeometry width="20" height="70" as="geometry" />
        </mxCell>
        <mxCell id="LLNnqfVXVq463Mdv8l-Q-28" value="#spawnersInstances [&lt;Spawner&gt;] (G/#S)" style="shape=partialRectangle;overflow=hidden;connectable=0;fillColor=#fff2cc;top=1;left=1;bottom=1;right=1;align=left;spacingLeft=6;fontStyle=1;fontColor=#000000;strokeColor=#000000;" parent="LLNnqfVXVq463Mdv8l-Q-26" vertex="1">
          <mxGeometry x="20" width="300" height="70" as="geometry" />
        </mxCell>
        <mxCell id="LLNnqfVXVq463Mdv8l-Q-29" value="" style="shape=partialRectangle;collapsible=0;dropTarget=0;pointerEvents=0;fillColor=none;points=[[0,0.5],[1,0.5]];portConstraint=eastwest;top=0;left=0;right=0;bottom=0;" parent="LLNnqfVXVq463Mdv8l-Q-25" vertex="1">
          <mxGeometry y="100" width="320" height="220" as="geometry" />
        </mxCell>
        <mxCell id="LLNnqfVXVq463Mdv8l-Q-30" value="" style="shape=partialRectangle;overflow=hidden;connectable=0;fillColor=#fff2cc;top=0;left=0;bottom=0;right=0;" parent="LLNnqfVXVq463Mdv8l-Q-29" vertex="1">
          <mxGeometry width="20" height="220" as="geometry" />
        </mxCell>
        <mxCell id="LLNnqfVXVq463Mdv8l-Q-31" value="&#xa;#init()&#xa;&#xa;#loadAllSpawners()&#xa;&#xa;#loadSpawnSpots&#xa;( spawnerByRoom&lt;Spawner json&gt; )&#xa;&#xa;#addSpawnerToSpawnersInstances&#xa;( itemToAdd&lt;Spawner&gt; )&#xa;&#xa;#processSpawnSpot&#xa;( roomCode&lt;number&gt;, spawnSpot&lt;object&gt;)&#xa;" style="shape=partialRectangle;overflow=hidden;connectable=0;fillColor=#fff2cc;top=1;left=1;bottom=1;right=1;align=left;spacingLeft=6;fontColor=#000000;strokeColor=#000000;" parent="LLNnqfVXVq463Mdv8l-Q-29" vertex="1">
          <mxGeometry x="20" width="300" height="220" as="geometry" />
        </mxCell>
        <mxCell id="BE7p2pkRk8eJ2be0iUBh-1" value="Spawner.js" style="shape=table;startSize=30;container=1;collapsible=1;childLayout=tableLayout;fixedRows=1;rowLines=0;fontStyle=1;align=center;resizeLast=1;fillColor=#ffe6cc;fontSize=14;fontColor=#000000;strokeColor=#000000;" parent="1" vertex="1">
          <mxGeometry x="930" y="-200" width="320" height="320" as="geometry">
            <mxRectangle x="40" y="80" width="80" height="30" as="alternateBounds" />
          </mxGeometry>
        </mxCell>
        <mxCell id="BE7p2pkRk8eJ2be0iUBh-2" value="" style="shape=partialRectangle;collapsible=0;dropTarget=0;pointerEvents=0;fillColor=none;points=[[0,0.5],[1,0.5]];portConstraint=eastwest;top=0;left=0;right=0;bottom=1;" parent="BE7p2pkRk8eJ2be0iUBh-1" vertex="1">
          <mxGeometry y="30" width="320" height="70" as="geometry" />
        </mxCell>
        <mxCell id="BE7p2pkRk8eJ2be0iUBh-3" value="" style="shape=partialRectangle;overflow=hidden;connectable=0;fillColor=#fff2cc;top=1;left=0;bottom=0;right=0;fontStyle=1;strokeColor=#000000;" parent="BE7p2pkRk8eJ2be0iUBh-2" vertex="1">
          <mxGeometry width="20" height="70" as="geometry" />
        </mxCell>
        <mxCell id="BE7p2pkRk8eJ2be0iUBh-4" value="#foo" style="shape=partialRectangle;overflow=hidden;connectable=0;fillColor=#fff2cc;top=1;left=1;bottom=1;right=1;align=left;spacingLeft=6;fontStyle=1;fontColor=#000000;strokeColor=#000000;" parent="BE7p2pkRk8eJ2be0iUBh-2" vertex="1">
          <mxGeometry x="20" width="300" height="70" as="geometry" />
        </mxCell>
        <mxCell id="BE7p2pkRk8eJ2be0iUBh-5" value="" style="shape=partialRectangle;collapsible=0;dropTarget=0;pointerEvents=0;fillColor=none;points=[[0,0.5],[1,0.5]];portConstraint=eastwest;top=0;left=0;right=0;bottom=0;" parent="BE7p2pkRk8eJ2be0iUBh-1" vertex="1">
          <mxGeometry y="100" width="320" height="220" as="geometry" />
        </mxCell>
        <mxCell id="BE7p2pkRk8eJ2be0iUBh-6" value="" style="shape=partialRectangle;overflow=hidden;connectable=0;fillColor=#fff2cc;top=0;left=0;bottom=0;right=0;" parent="BE7p2pkRk8eJ2be0iUBh-5" vertex="1">
          <mxGeometry width="20" height="220" as="geometry" />
        </mxCell>
        <mxCell id="BE7p2pkRk8eJ2be0iUBh-7" value="#bar" style="shape=partialRectangle;overflow=hidden;connectable=0;fillColor=#fff2cc;top=1;left=1;bottom=1;right=1;align=left;spacingLeft=6;fontColor=#000000;strokeColor=#000000;" parent="BE7p2pkRk8eJ2be0iUBh-5" vertex="1">
          <mxGeometry x="20" width="300" height="220" as="geometry" />
        </mxCell>
      </root>
    </mxGraphModel>
  </diagram>
</mxfile>
